<svg display="none" xmlns="http://www.w3.org/2000/svg">
    <symbol id="logo" viewBox="0 0 45.651 43.416">
        <g>
	        <g transform="translate(-1.175)">
            <g id="Polygon" fill="none" stroke-miterlimit="10">
            <path d="M24,0,46.825,16.584,38.107,43.416H9.893L1.175,16.584Z" stroke="none"/>
            <path d="M 23.99999809265137 6.180351257324219 L 7.052497863769531 18.49341773986816 L 13.5258674621582 38.41640472412109 L 34.47411346435547 38.41640472412109 L 40.94748306274414 18.49341583251953 L 23.99999809265137 6.180351257324219 M 24 3.814697265625e-06 L 46.82534408569336 16.58358573913574 L 38.10683441162109 43.41640472412109 L 9.893146514892578 43.41640472412109 L 1.174636840820312 16.58358573913574 L 24 3.814697265625e-06 Z" stroke="none" fill="#ef6d58"/>
            </g>
            <path id="Polygon-2" data-name="Polygon" d="M9.5,0l9.035,6.564L15.084,17.186H3.916L.465,6.564Z" transform="translate(14 14)" fill="#ef6d58"/>
            </g>
        </g>
    </symbol>

    <symbol id="zoom" viewBox="0 0 47.601 47.601">
        <g>
            <g id="Icon_feather-search" data-name="Icon feather-search" transform="translate(-4.5 -4.5)">
                <g id="Контур_10" data-name="Контур 10" fill="none" stroke-linecap="round" stroke-linejoin="round">
                <path d="M42.4,23.45A18.95,18.95,0,1,1,23.45,4.5,18.95,18.95,0,0,1,42.4,23.45Z" stroke="none"/>
                <path d="M 23.45014381408691 12.49999618530273 C 17.41221046447754 12.49999618530273 12.49999618530273 17.41221046447754 12.49999618530273 23.45014381408691 C 12.49999618530273 29.48807716369629 17.41221046447754 34.40029144287109 23.45014381408691 34.40029144287109 C 29.48807716369629 34.40029144287109 34.40029144287109 29.48807716369629 34.40029144287109 23.45014381408691 C 34.40029144287109 17.41221046447754 29.48807716369629 12.49999618530273 23.45014381408691 12.49999618530273 M 23.45014381408691 4.499996185302734 C 33.91602325439453 4.499996185302734 42.40029144287109 12.9842643737793 42.40029144287109 23.45014381408691 C 42.40029144287109 33.91602325439453 33.91602325439453 42.40029144287109 23.45014381408691 42.40029144287109 C 12.9842643737793 42.40029144287109 4.499996185302734 33.91602325439453 4.499996185302734 23.45014381408691 C 4.499996185302734 12.9842643737793 12.9842643737793 4.499996185302734 23.45014381408691 4.499996185302734 Z" stroke="none" fill="#fff"/>
                </g>
                <path id="Контур_11" data-name="Контур 11" d="M33.771,33.771l-8.8-8.8" transform="translate(12.674 12.674)" fill="none" stroke="#fff" stroke-linecap="round" stroke-linejoin="round" stroke-width="8"/>
            </g>
        </g>
    </symbol>
    <symbol id="features-img" viewBox="0 0 80 80">
    <g>
        <g  transform="translate(-683 -1520)">
            <circle id="Oval" cx="40" cy="40" r="40" transform="translate(683 1520)" fill="#ef6c57"/>
            <path id="Combined_Shape" data-name="Combined Shape" d="M6,32H5.993A6,6,0,0,1,0,26.088V1A1,1,0,0,1,1,0H11a1,1,0,0,1,1,1V11.554l8.294-8.262a1,1,0,0,1,1.414,0l7.07,7.072a1,1,0,0,1,0,1.416L20.522,20H31a1,1,0,0,1,1,1V31a1,1,0,0,1-1,1Zm4.486-2H30V22H18.516ZM3,26a3,3,0,1,0,3-3A3,3,0,0,0,3,26Zm9-11.624V25.668l14.656-14.6L21,5.412Z" transform="translate(707 1544)" fill="#fff"/>
        </g>
    </g>
    </symbol>
    <symbol id="arrow" viewBox="0 0 11.595 7.481">
        <g>
            <path d="M5.045.341.249,5.822A1,1,0,0,0,1,7.481h9.592a1,1,0,0,0,.753-1.659L6.551.342a1,1,0,0,0-1.506,0Z" fill="#fff"/>
        </g>
    </symbol>
    <symbol id="fb" viewBox="0 0 9.333 16">
        <g>
            <path d="M2.667,5.333H0V8H2.667v8h4V8H9.093l.24-2.667H6.667V4.223c0-.637.128-.889.744-.889H9.333V0H6.128c-2.4,0-3.461,1.056-3.461,3.077Z" fill="#fff"/>
        </g>
    </symbol>
    <symbol id="tw" viewBox="0 0 16 13.004">
        <g>
            <path d="M16,1.54a6.57,6.57,0,0,1-1.885.517A3.3,3.3,0,0,0,15.559.241a6.568,6.568,0,0,1-2.085.8A3.284,3.284,0,0,0,7.88,4.031,9.323,9.323,0,0,1,1.115.6,3.287,3.287,0,0,0,2.131,4.984,3.277,3.277,0,0,1,.645,4.573a3.287,3.287,0,0,0,2.633,3.26A3.29,3.29,0,0,1,1.8,7.889a3.287,3.287,0,0,0,3.067,2.279A6.606,6.606,0,0,1,0,11.529,9.284,9.284,0,0,0,5.031,13a9.284,9.284,0,0,0,9.331-9.765A6.618,6.618,0,0,0,16,1.54Z" fill="#fff"/>
        </g>
    </symbol>
    <symbol id="ig" viewBox="0 0 16 16">
        <g>
            <path d="M4.7,15.952C1.795,15.818.181,14.2.048,11.3.009,10.445,0,10.174,0,8S.009,5.556.048,4.7C.181,1.795,1.795.183,4.7.049,5.556.009,5.827,0,8,0s2.445.009,3.3.049C14.207.181,15.821,1.8,15.952,4.7,15.99,5.556,16,5.828,16,8s-.01,2.445-.049,3.3c-.13,2.908-1.75,4.52-4.651,4.653C10.445,15.99,10.174,16,8,16S5.556,15.99,4.7,15.952Z" fill="#fff"/>
        </g>
    </symbol>
    <symbol id="star" viewBox="0 0 22.825 21.708">
        <g>
            <path id="Star" d="M12,18,4.947,21.708l1.347-7.854L.587,8.292,8.473,7.146,12,0l3.527,7.146,7.886,1.146-5.706,5.562,1.347,7.854Z" transform="translate(-0.587)" fill="#f6d021"/>
        </g>
    </symbol>
</svg>