<svg xmlns="http://www.w3.org/2000/svg" width="47.601" height="47.601" viewBox="0 0 47.601 47.601">
  <g id="Icon_feather-search" data-name="Icon feather-search" transform="translate(-4.5 -4.5)">
    <g id="Контур_10" data-name="Контур 10" fill="none" stroke-linecap="round" stroke-linejoin="round">
      <path d="M42.4,23.45A18.95,18.95,0,1,1,23.45,4.5,18.95,18.95,0,0,1,42.4,23.45Z" stroke="none"/>
      <path d="M 23.45014381408691 12.49999618530273 C 17.41221046447754 12.49999618530273 12.49999618530273 17.41221046447754 12.49999618530273 23.45014381408691 C 12.49999618530273 29.48807716369629 17.41221046447754 34.40029144287109 23.45014381408691 34.40029144287109 C 29.48807716369629 34.40029144287109 34.40029144287109 29.48807716369629 34.40029144287109 23.45014381408691 C 34.40029144287109 17.41221046447754 29.48807716369629 12.49999618530273 23.45014381408691 12.49999618530273 M 23.45014381408691 4.499996185302734 C 33.91602325439453 4.499996185302734 42.40029144287109 12.9842643737793 42.40029144287109 23.45014381408691 C 42.40029144287109 33.91602325439453 33.91602325439453 42.40029144287109 23.45014381408691 42.40029144287109 C 12.9842643737793 42.40029144287109 4.499996185302734 33.91602325439453 4.499996185302734 23.45014381408691 C 4.499996185302734 12.9842643737793 12.9842643737793 4.499996185302734 23.45014381408691 4.499996185302734 Z" stroke="none" fill="#fff"/>
    </g>
    <path id="Контур_11" data-name="Контур 11" d="M33.771,33.771l-8.8-8.8" transform="translate(12.674 12.674)" fill="none" stroke="#fff" stroke-linecap="round" stroke-linejoin="round" stroke-width="8"/>
  </g>
</svg>
